<svg xmlns="http://www.w3.org/2000/svg" viewBox="0 0 512 512" width="512" height="512">
  <defs>
    <linearGradient id="d3bg" x1="0%" y1="0%" x2="100%" y2="100%"><stop offset="0%" stop-color="#FAFAFA"/><stop offset="100%" stop-color="#E2E8F0"/></linearGradient>
    <linearGradient id="d3fold1" x1="0%" y1="0%" x2="100%" y2="100%"><stop offset="0%" stop-color="#FFFFFF"/><stop offset="100%" stop-color="#CBD5E1"/></linearGradient>
    <linearGradient id="d3fold2" x1="0%" y1="0%" x2="100%" y2="0%"><stop offset="0%" stop-color="#94A3B8"/><stop offset="100%" stop-color="#E2E8F0"/></linearGradient>
    <linearGradient id="d3accent" x1="0%" y1="0%" x2="100%" y2="0%"><stop offset="0%" stop-color="#2563EB"/><stop offset="100%" stop-color="#7EC8E3"/></linearGradient>
  </defs>
  <rect width="512" height="512" fill="url(#d3bg)"/>
  <polygon points="256,100 380,220 320,280 256,240 192,280 132,220" fill="url(#d3fold1)" stroke="#64748B" stroke-width="2" stroke-linejoin="round"/>
  <polygon points="256,100 320,280 256,240" fill="url(#d3fold2)" stroke="#64748B" stroke-width="1.5" opacity="0.6"/>
  <polygon points="256,100 192,280 256,240" fill="#F1F5F9" stroke="#64748B" stroke-width="1.5" opacity="0.5"/>
  <polygon points="132,220 192,280 256,300 320,280 380,220 256,240" fill="none" stroke="url(#d3accent)" stroke-width="2"/>
  <polygon points="256,240 256,340 220,300" fill="#CBD5E1" stroke="#64748B" stroke-width="1.5"/>
  <polygon points="256,240 256,340 292,300" fill="#94A3B8" stroke="#64748B" stroke-width="1.5" opacity="0.5"/>
  <circle cx="256" cy="370" r="3" fill="url(#d3accent)"/>
  <text x="256" y="420" text-anchor="middle" font-family="Orbitron, sans-serif" font-size="24" font-weight="900" fill="#0F172A" letter-spacing="3">GankDream</text>
  <text x="256" y="452" text-anchor="middle" font-family="Share Tech Mono, monospace" font-size="10" fill="#64748B" letter-spacing="4">ORIGAMI.PEACE</text>
</svg>