
        <!-- 这里是为您合成的 SVG -->
        <svg id="finalSvg" viewBox="0 0 1024 1024" xmlns="http://www.w3.org/2000/svg">
            <rect width="1024" height="1024" rx="200" ry="200" fill="#FFFFFF"></rect>
            <g transform="translate(102.4, 102.4) scale(0.8)">
                <path d="M585.173333 662.186667c1.706667 5.973333 3.626667 11.733333 5.12 17.706666 6.826667 26.453333 15.146667 52.48 25.386667 77.653334 10.666667 25.813333 23.04 50.773333 37.12 74.88 12.586667 21.546667 26.453333 42.24 39.466667 63.36 4.693333 7.68 9.173333 15.786667 10.88 24.96 2.986667 15.36-5.333333 29.013333-21.12 34.986666-14.72 5.546667-29.653333 9.6-45.013334 12.373334-22.826667 4.053333-45.866667 6.826667-69.333333 7.253333-37.333333 0.64-74.026667-3.626667-110.08-13.013333-25.6-6.613333-50.133333-15.573333-74.026667-26.666667a408.106667 408.106667 0 0 1-112.853333-77.226667 398.250667 398.250667 0 0 1-75.093333-98.56 415.786667 415.786667 0 0 1-34.346667-85.973333c-7.253333-26.026667-12.373333-52.48-14.293333-79.573333-3.84-49.28 0.426667-97.92 14.293333-145.28 17.706667-60.8 46.933333-115.413333 89.173333-162.773334 38.613333-43.306667 84.053333-77.226667 136.746667-101.546666 36.906667-17.066667 75.52-27.946667 115.413333-34.346667 43.52-7.04 87.04-7.893333 130.56 0 33.92 5.973333 66.56 15.573333 98.133334 29.44 51.413333 22.613333 96.426667 54.613333 135.04 95.573333 37.546667 40.106667 66.773333 85.546667 86.4 137.173334 12.586667 32.853333 20.693333 66.773333 24.96 101.546666 7.04 59.306667 1.066667 117.333333-17.92 174.08-21.973333 66.346667-58.026667 123.946667-108.586667 172.16-18.773333 17.92-39.04 34.346667-61.653333 47.36-17.706667 10.026667-34.56 8.96-51.2-1.92-17.706667-11.52-30.933333-27.306667-43.946667-43.733333-12.373333-15.573333-23.466667-31.786667-33.493333-49.066667-0.853333-1.493333-1.706667-2.986667-2.986667-5.546666 4.48 1.493333 6.826667 4.266667 9.6 6.4 13.44 9.813333 28.16 16.213333 44.8 17.706666 18.56 1.493333 35.413333-3.413333 50.56-13.653333 27.306667-18.56 43.733333-43.946667 46.293333-77.653333 0.853333-10.666667-1.28-20.906667-5.546666-30.72-1.28-2.773333-2.133333-4.906667 2.773333-4.906667 38.613333 0 64.426667-20.053333 80.426667-53.546667 10.24-21.546667 11.52-44.373333 4.266666-67.2-6.613333-20.906667-21.333333-35.2-40.533333-45.013333-21.12-10.666667-43.946667-13.653333-67.2-14.293333-28.8-0.853333-57.173333 2.346667-85.546667 6.186666-8.96 1.28-17.92 2.986667-26.88 4.48-1.706667 0.213333-3.413333 1.066667-5.973333-0.426666 5.546667-1.706667 10.453333-2.986667 15.36-4.48 25.386667-7.04 50.773333-14.293333 75.52-24.106667 26.24-10.453333 51.626667-22.826667 71.68-43.52 15.573333-16 23.68-35.413333 23.466667-57.813333-0.213333-18.133333-7.04-34.346667-17.706667-48.64-16.213333-21.546667-37.12-36.48-64-41.173334-15.573333-2.773333-30.72-0.426667-45.013333 6.613334-1.493333 0.853333-3.626667 2.986667-3.626667-1.28 0-27.306667-12.373333-48.426667-33.28-64.853334-24.746667-19.2-52.48-27.52-83.413333-21.333333-30.72 6.186667-50.133333 25.813333-61.653334 54.4-10.24 25.386667-11.306667 51.84-10.666666 78.506667 0.64 25.6 4.266667 50.773333 8.106666 76.16 1.066667 7.466667 2.133333 14.933333 3.626667 23.893333-2.986667-5.76-3.84-10.453333-5.333333-15.146667-9.813333-34.986667-19.2-70.186667-35.2-103.04-10.24-20.906667-23.04-39.893333-41.6-54.186666-20.693333-16-43.733333-21.973333-69.12-15.786667-27.946667 6.826667-49.066667 23.68-64 48.213333-11.946667 19.626667-16.64 40.96-12.16 63.786667 0.853333 4.266667 2.346667 8.32 4.48 12.16 2.133333 3.626667 0.853333 4.053333-2.773334 4.053333-14.933333 0-29.013333 3.2-41.813333 11.52-30.293333 19.84-44.8 48.64-45.866667 84.053334-0.853333 29.013333 11.093333 51.84 35.413334 67.413333 15.36 9.813333 32.426667 14.506667 50.56 16.213333 23.253333 2.346667 46.72 1.92 69.973333-0.426666 26.24-2.346667 52.053333-5.973333 78.08-9.6h2.773333c-1.706667 2.346667-3.84 2.346667-5.76 2.773333-25.173333 5.333333-49.92 13.013333-74.453333 21.12-25.6 8.533333-50.346667 18.986667-72.533333 34.56-15.36 10.88-28.586667 23.893333-36.48 41.386667-11.093333 24.533333-8.96 48.853333 3.84 71.68 18.133333 32.64 46.506667 49.28 83.84 50.346666 11.52 0.213333 22.613333-2.56 33.066666-8.106666 1.706667-0.853333 3.84-2.773333 3.84 1.493333-0.213333 29.013333 13.653333 50.346667 36.48 66.133333 23.68 16.426667 49.92 23.68 78.933334 17.493334 28.373333-6.186667 47.36-23.68 58.88-49.706667 10.88-24.32 13.013333-50.56 13.44-76.8 0.426667-27.52-2.133333-54.826667-6.613334-81.92 0-1.066667-0.426667-2.133333-0.426666-3.413333 0-0.426667 0-0.853333 0.213333-1.28h0.853333z" fill="#04BF43" p-id="1227"></path>
                <path d="M600.32 686.08c1.706667 5.76 3.626667 11.52 5.12 17.28 6.613333 25.6 14.506667 50.986667 24.746667 75.306667a591.146667 591.146667 0 0 0 36.053333 72.746666c12.16 20.906667 25.6 40.96 38.4 61.44 4.693333 7.466667 8.96 15.36 10.453333 24.106667 2.773333 14.933333-5.12 28.16-20.48 33.92-14.293333 5.333333-28.8 9.173333-43.733333 11.946667-22.186667 3.84-44.586667 6.613333-67.2 7.04-36.266667 0.64-71.68-3.626667-106.88-12.8-24.746667-6.4-48.64-15.146667-71.893333-26.026667-40.746667-18.773333-77.226667-43.733333-109.44-74.88a387.84 387.84 0 0 1-72.96-95.573333c-14.293333-26.453333-25.173333-54.4-33.28-83.413334-7.04-25.386667-11.946667-50.986667-13.866667-77.226666-3.626667-47.786667 0.426667-94.933333 13.866667-141.013334 17.28-59.093333 45.44-112 86.4-157.866666 37.333333-42.026667 81.493333-74.88 132.693333-98.56 35.84-16.426667 73.386667-27.093333 112-33.28 42.24-6.826667 84.48-7.466667 126.72 0 32.853333 5.76 64.64 15.146667 95.36 28.586666a396.373333 396.373333 0 0 1 130.986667 92.8c36.48 38.826667 64.853333 83.2 83.84 133.12 12.16 31.786667 20.266667 64.853333 24.32 98.56 7.04 57.6 1.066667 113.92-17.28 168.96-21.333333 64.426667-56.106667 120.32-105.386667 167.04-18.346667 17.28-37.76 33.28-59.733333 45.866667-17.066667 9.813333-33.493333 8.746667-49.706667-1.92-17.066667-11.093333-30.08-26.666667-42.666667-42.453333-11.946667-15.146667-22.826667-30.933333-32.426666-47.573334-0.853333-1.493333-1.493333-2.986667-2.773334-5.333333 4.48 1.493333 6.613333 4.266667 9.386667 6.186667 13.013333 9.386667 27.306667 15.786667 43.52 17.066666 17.92 1.493333 34.346667-3.2 49.066667-13.226666 26.666667-17.92 42.453333-42.666667 44.8-75.306667 0.64-10.24-1.066667-20.266667-5.333334-29.866667-1.28-2.773333-2.133333-4.693333 2.56-4.693333 37.333333 0 62.506667-19.413333 78.08-52.053333 10.026667-20.906667 11.093333-43.093333 4.053334-65.28-6.4-20.266667-20.693333-34.346667-39.253334-43.733334-20.48-10.453333-42.666667-13.226667-65.066666-13.866666-27.946667-0.853333-55.466667 2.133333-82.986667 5.973333-8.746667 1.28-17.28 2.986667-26.026667 4.48-1.493333 0.213333-3.2 1.066667-5.76-0.426667 5.546667-1.493333 10.24-2.986667 14.933334-4.266666 24.746667-6.826667 49.28-13.866667 73.173333-23.253334 25.6-10.24 50.133333-21.973333 69.546667-42.24 15.146667-15.573333 23.04-34.346667 22.613333-56.106666-0.213333-17.706667-6.826667-33.28-17.28-47.146667-15.573333-21.12-35.84-35.413333-62.08-39.893333-15.146667-2.56-29.866667-0.426667-43.733333 6.4-1.493333 0.64-3.413333 2.773333-3.413334-1.28 0-26.453333-11.946667-47.146667-32.213333-62.933334-23.893333-18.56-50.986667-26.666667-80.853333-20.693333s-48.64 25.173333-59.733334 52.906667c-9.813333 24.533333-10.88 50.346667-10.24 76.373333 0.64 24.746667 4.053333 49.28 7.893334 73.813333l3.413333 23.253334c-2.986667-5.546667-3.84-10.24-5.12-14.72-9.6-33.92-18.773333-68.053333-34.346667-100.053334-9.813333-20.266667-22.186667-38.613333-40.32-52.693333-20.053333-15.573333-42.453333-21.333333-67.2-15.36-27.093333 6.613333-47.573333 23.04-62.08 46.72-11.52 18.986667-16.213333 39.68-11.733333 61.866667 0.853333 4.053333 2.346667 8.106667 4.266667 11.733333 1.92 3.626667 0.64 3.84-2.56 3.84-14.506667 0-28.16 3.2-40.533334 11.093333-29.44 19.2-43.306667 47.146667-44.373333 81.706667-0.853333 28.16 10.88 50.133333 34.346667 65.493333 14.72 9.6 31.573333 14.08 49.066666 15.786667 22.613333 2.346667 45.226667 1.706667 67.84-0.426667 25.386667-2.346667 50.56-5.76 75.733334-9.386666h2.773333c-1.706667 2.346667-3.84 2.346667-5.546667 2.773333-24.533333 5.12-48.426667 12.586667-72.106666 20.48-24.746667 8.106667-48.853333 18.346667-70.4 33.706667-14.933333 10.666667-27.733333 23.253333-35.413334 40.32-10.666667 23.68-8.746667 47.36 3.626667 69.76 17.493333 31.786667 45.226667 48 81.28 48.853333 11.306667 0.213333 21.973333-2.56 32-7.893333 1.706667-0.853333 3.84-2.773333 3.626667 1.493333-0.213333 28.16 13.226667 48.853333 35.413333 64.213333 23.04 16 48.426667 23.04 76.586667 16.853334 27.52-5.973333 46.08-22.826667 57.173333-48.213334 10.453333-23.68 12.586667-49.066667 13.013333-74.453333 0.426667-26.666667-2.133333-53.12-6.4-79.573333 0-1.066667-0.426667-2.133333-0.426666-3.2 0-0.426667 0-0.853333 0.213333-1.28h0.853333z" fill="#7FFF83" p-id="1228"></path>
                <path d="M176 210.56c2.986667 8.106667 36.906667 2.986667 75.733333-11.52s67.84-32.853333 64.853334-40.96-36.906667-2.986667-75.733334 11.52-67.84 32.853333-64.853333 40.96M25.813333 571.306667c10.24 6.613333 43.306667-26.453333 73.813334-74.026667 30.506667-47.36 46.933333-91.306667 36.693333-97.706667s-43.306667 26.453333-73.813333 74.026667c-30.506667 47.36-46.933333 91.306667-36.693334 97.706667M185.386667 303.573333c-6.826667 2.133333-1.706667 36.053333 11.306666 75.733334s29.013333 69.76 35.84 67.626666 1.706667-36.053333-11.306666-75.733333-29.013333-69.76-35.84-67.626667M296.106667 745.813333c-7.04-0.64-15.573333 26.453333-18.773334 60.373334s0 62.08 7.04 62.72 15.573333-26.453333 18.773334-60.373334 0-62.08-7.04-62.72" fill="#009464" p-id="1229"></path>
                <path d="M445.866667 731.306667c-12.8-13.44-62.72 13.866667-111.36 60.586666-48.64 46.933333-77.653333 95.786667-64.853334 109.013334 12.8 13.44 62.72-13.866667 111.36-60.586667 48.64-46.933333 77.653333-95.786667 64.853334-109.013333" fill="#009464" p-id="1230"></path>
                <path d="M857.386667 889.813333m-27.946667 0a27.946667 27.946667 0 1 0 55.893333 0 27.946667 27.946667 0 1 0-55.893333 0Z" fill="#00820F" p-id="1231"></path>
                <path d="M599.253333 208m-27.946666 0a27.946667 27.946667 0 1 0 55.893333 0 27.946667 27.946667 0 1 0-55.893333 0Z" fill="#FFFFFF" p-id="1232"></path>
            </g>
        </svg>
    